<svg xmlns="http://www.w3.org/2000/svg" viewBox="0 0 512 512">
  <defs>
    <linearGradient id="bgGradient" x1="0%" y1="0%" x2="100%" y2="100%">
      <stop offset="0%" stop-color="#166B42"/>
      <stop offset="50%" stop-color="#0F5132"/>
      <stop offset="100%" stop-color="#0A3B24"/>
    </linearGradient>
    <linearGradient id="goldGradient" x1="0%" y1="0%" x2="0%" y2="100%">
      <stop offset="0%" stop-color="#FFD966"/>
      <stop offset="50%" stop-color="#C9A227"/>
      <stop offset="100%" stop-color="#A8861F"/>
    </linearGradient>
    <filter id="glow">
      <feGaussianBlur stdDeviation="3" result="blur"/>
      <feMerge>
        <feMergeNode in="blur"/>
        <feMergeNode in="SourceGraphic"/>
      </feMerge>
    </filter>
  </defs>
  
  <circle cx="256" cy="256" r="248" fill="url(#bgGradient)"/>
  <circle cx="256" cy="256" r="248" fill="none" stroke="url(#goldGradient)" stroke-width="8"/>
  <circle cx="256" cy="256" r="232" fill="none" stroke="#C9A227" stroke-width="1.5" opacity="0.4"/>
  
  <g opacity="0.08" stroke="#C9A227" stroke-width="1.5" fill="none">
    <polygon points="256,60 356,140 356,260 256,340 156,260 156,140" />
    <polygon points="256,90 330,148 330,252 256,310 182,252 182,148" />
    <line x1="256" y1="60" x2="256" y2="340"/>
    <line x1="156" y1="140" x2="356" y2="260"/>
    <line x1="356" y1="140" x2="156" y2="260"/>
  </g>
  
  <g filter="url(#glow)">
    <path d="M 256 130 
             C 200 130, 165 180, 165 220 
             L 165 260 
             L 347 260 
             L 347 220 
             C 347 180, 312 130, 256 130 Z" 
          fill="url(#goldGradient)"/>
    
    <rect x="252" y="85" width="8" height="45" fill="#C9A227" rx="1"/>
    <circle cx="256" cy="80" r="10" fill="#C9A227"/>
    <circle cx="256" cy="80" r="5" fill="#FFD966"/>
    
    <path d="M 256 62 
             A 12 12 0 1 1 256 78 
             A 10 10 0 1 0 256 62 Z" 
          fill="#FFD966"/>
  </g>
  
  <path d="M 165 260 L 347 260 L 347 340 L 165 340 Z" fill="#C9A227"/>
  
  <path d="M 220 340 
           L 220 300 
           C 220 280, 235 265, 256 265 
           C 277 265, 292 280, 292 300 
           L 292 340 Z" 
        fill="#0F5132"/>
  
  <g>
    <rect x="140" y="200" width="22" height="140" fill="url(#goldGradient)"/>
    <path d="M 140 200 L 151 175 L 162 200 Z" fill="#C9A227"/>
    <circle cx="151" cy="170" r="6" fill="#FFD966"/>
    
    <rect x="350" y="200" width="22" height="140" fill="url(#goldGradient)"/>
    <path d="M 350 200 L 361 175 L 372 200 Z" fill="#C9A227"/>
    <circle cx="361" cy="170" r="6" fill="#FFD966"/>
  </g>
  
  <circle cx="200" cy="295" r="6" fill="#0F5132" opacity="0.7"/>
  <circle cx="312" cy="295" r="6" fill="#0F5132" opacity="0.7"/>
  
  <rect x="120" y="340" width="272" height="8" fill="#A8861F" rx="2"/>
  <rect x="100" y="348" width="312" height="8" fill="#C9A227" rx="3"/>
  
  <text x="256" y="395" 
        font-family="Arial, sans-serif" 
        font-size="38" 
        font-weight="bold" 
        fill="#FFD966" 
        text-anchor="middle" 
        letter-spacing="3"
        opacity="0.9">TAZKIA</text>
  
  <g fill="#FFD966" opacity="0.7">
    <circle cx="80" cy="140" r="3"/>
    <circle cx="432" cy="140" r="3"/>
    <circle cx="80" cy="370" r="2.5"/>
    <circle cx="432" cy="370" r="2.5"/>
  </g>
</svg>
